<svg xmlns="http://www.w3.org/2000/svg" viewBox="0 0 64 64" id="cash"><path fill="#292f64" d="M33.52 26.97c-.62-1.31-1.8-2.25-3.33-2.64-1.45-.38-3.07-.2-4.54.48-3.08 1.45-4.58 4.79-3.34 7.44.62 1.31 1.8 2.25 3.33 2.64.5.13 1.03.19 1.55.19 1 0 2.03-.23 2.99-.68 1.46-.7 2.62-1.82 3.26-3.19.67-1.42.7-2.93.08-4.24zm-1.84 3.42c-.45.96-1.28 1.76-2.34 2.26-1.06.49-2.2.63-3.22.36-.96-.24-1.69-.8-2.06-1.59-.79-1.67.29-3.85 2.41-4.85.7-.33 1.44-.49 2.15-.49.37 0 .73.04 1.07.13.96.25 1.69.81 2.06 1.59.38.78.35 1.7-.07 2.59zM26.06 18.6a3.018 3.018 0 0 0-4.01-1.44c-1.5.72-2.15 2.52-1.44 4.02.35.73.95 1.28 1.72 1.55.33.12.68.18 1.02.18.44 0 .87-.1 1.29-.29.73-.35 1.28-.95 1.55-1.72.26-.75.22-1.57-.13-2.3zm-1.71 1.66c-.1.27-.3.48-.56.61-.53.25-1.18.02-1.44-.51-.13-.26-.14-.56-.04-.83.1-.27.29-.48.55-.61.16-.07.31-.1.47-.1.4 0 .8.22.97.62.13.24.15.55.05.82zm10.88 17.78a3.018 3.018 0 0 0-4.01-1.44c-.74.35-1.29.95-1.56 1.72-.27.76-.23 1.57.12 2.31.51 1.09 1.6 1.73 2.73 1.73.43 0 .87-.09 1.28-.29a3.012 3.012 0 0 0 1.44-4.03zm-1.71 1.65a1.08 1.08 0 0 1-1.99.1 1.02 1.02 0 0 1-.04-.82 1.098 1.098 0 0 1 1.01-.72 1.075 1.075 0 0 1 1.02 1.44z"></path><path fill="#292f64" d="m30.87 28.96-.01.06-.06.11c-.04.05-.07.07-.1.08l-.48.17c.01.03.02.07.02.1.02.09.03.16.04.24.01.08.01.15.01.2a.61.61 0 0 1-.04.19c-.03.08-.08.14-.15.18-.04.04-.12.08-.21.13-.08.04-.14.06-.18.08-.06.03-.12.03-.16.04h-.06l-.13-.05c-.05-.03-.08-.07-.11-.13s-.03-.13-.03-.22c.01-.07.01-.14.01-.21a1.487 1.487 0 0 0-.15-.63c-.09-.17-.18-.3-.28-.35-.08-.04-.15-.05-.23 0-.05.02-.09.05-.11.09a.87.87 0 0 0-.05.19c0 .08 0 .17.01.28l.03.37c.01.12.01.25 0 .39-.01.15-.03.28-.09.42-.04.14-.12.26-.22.38-.12.13-.26.22-.45.31a1.13 1.13 0 0 1-.97.06c-.16-.06-.29-.15-.44-.26-.1-.09-.18-.19-.26-.31l-.5.18h-.1l-.06-.01-.1-.07c-.02-.02-.05-.05-.08-.1s-.05-.09-.08-.15c-.03-.07-.06-.13-.07-.17a.55.55 0 0 1-.03-.16v-.09l.08-.12c.04-.04.07-.06.11-.07l.43-.16c-.01 0-.01-.01-.01-.02-.02-.07-.03-.15-.04-.21 0-.07 0-.13-.01-.17 0-.07.01-.13.03-.18l.01-.03.05-.09c.03-.03.06-.07.11-.1l.09-.05c.03-.02.08-.05.13-.07l.16-.07c.04-.02.1-.04.15-.04l.07-.01.12.06.04.03.05.07c.02.06.03.13.03.21v.19c.01.09.02.17.04.26.01.08.04.16.09.27.04.09.08.16.12.19.04.05.07.08.11.1.11.01.14 0 .17-.01.05-.03.08-.06.11-.1.02-.05.04-.12.04-.18.01-.1 0-.19 0-.3-.02-.12-.03-.24-.04-.37a2.67 2.67 0 0 1 0-.4 1.357 1.357 0 0 1 .3-.8c.11-.13.25-.22.44-.31.17-.09.37-.14.55-.14.2-.01.38.03.54.1.16.07.33.17.48.32.11.1.2.22.29.36l.55-.19h.1l.05.01.09.06c.03.03.06.07.09.1.03.05.05.1.08.15.03.08.06.14.07.18-.01.08 0 .14 0 .19z"></path><path fill="#292f64" d="M39.65 21.77c0 .44-.11.85-.3 1.24l-1.99-4.2c1.35.56 2.29 1.69 2.29 2.96zm12.3 40.29H40.63v-3.11H51.94v3.11zm-.96-7.42c-.11.25-.16.54-.18.88L50.79 57h-8.87c-.32-2.31-.6-4.58-.57-5.98 0-.23.04-.45.12-.68l1.4-4.02c.01-.01.01-.02.01-.04l.67-1.93c.15-.43.22-.86.22-1.3v-7.49c0-.38.15-.72.39-.97.01-.01.02-.03.03-.04.05-.06.11-.1.17-.15.02-.02.05-.03.07-.05.22-.15.48-.22.77-.22.39 0 .75.15 1.03.43.27.26.42.62.42 1v6.78c0 .53.44.97.97.97s.97-.44.97-.97v-3.59l2.69 1.18c.06.03.12.09.15.14l2.93 6.86c.05.12.05.27.02.35l-3.39 7.36zm1.78.78 3.36-7.4c.23-.62.21-1.28-.04-1.85l-2.93-6.87a2.3 2.3 0 0 0-1.13-1.13l-2.82-1.24c-.21-.1-.43-.16-.65-.18V2.91c0-1.6-1.3-2.91-2.9-2.91h-20.5c-1.61 0-2.91 1.31-2.91 2.91v5.3L9.36 14.29a2.919 2.919 0 0 0-1.39 3.87l16.09 34.11c.33.71.92 1.24 1.65 1.5.32.11.65.16.98.16.43 0 .84-.09 1.24-.28l12.34-5.82-.64 1.86c-.16.42-.23.86-.23 1.3-.03 1.48.23 3.65.56 6h-.3c-.53 0-.97.44-.97.97v5.05c0 .53.44.97.97.97h13.26c.54 0 .97-.44.97-.97v-5.05a.97.97 0 0 0-.97-.97h-.19l.01-1.42c0-.05.02-.13.03-.15zM41.82 35.57v1.74L30.33 12.97a.984.984 0 0 0-1.3-.47c-.96.46-2.11.04-2.57-.92a.996.996 0 0 0-.55-.5.954.954 0 0 0-.74.04l-9.78 4.62c-.48.22-.69.8-.47 1.29.46.96.04 2.12-.92 2.57-.23.12-.42.31-.5.55-.09.24-.07.51.04.75l11.97 25.35c.22.48.8.69 1.29.47.96-.46 2.11-.04 2.58.92.16.35.51.56.87.56.14 0 .28-.03.42-.1l9.77-4.62c.48-.22.69-.8.47-1.29-.46-.96-.05-2.1.91-2.57v3.43c0 .23-.04.46-.12.68l-.53 1.54-14.06 6.63a.96.96 0 0 1-1.29-.46L9.73 17.34a.96.96 0 0 1 .46-1.29L28.73 7.3a.976.976 0 0 1 1.29.47l12.3 26.07c-.32.5-.5 1.09-.5 1.73zm-2.97 6.52-8.25 3.89c-.74-.89-1.84-1.4-2.99-1.4-.23 0-.48.02-.72.07L15.65 20.83c1.09-.89 1.59-2.33 1.33-3.7l8.25-3.89c.44.52 1.01.93 1.67 1.17.67.23 1.37.28 2.04.16L40.18 38.4c-1.08.88-1.59 2.31-1.33 3.69zm-4.52-31.06a1.084 1.084 0 1 1 2.17 0 1.084 1.084 0 0 1-2.17 0zm8.43 19.2-2.46-5.21c.84-.92 1.3-2.05 1.3-3.25 0-2.68-2.29-4.89-5.3-5.25l-1.18-2.51c.1.01.19.03.3.03 1.67 0 3.03-1.36 3.03-3.02 0-1.67-1.36-3.03-3.03-3.03-1.04 0-1.96.53-2.5 1.35l-1.13-2.4c-.22-.46-.55-.82-.93-1.11 0-.01 0-.01.01-.02h9.12a3.892 3.892 0 0 0 2.78 2.78v21.64zm3.87 2.3c-.45-.21-.93-.33-1.44-.33-.16 0-.33.02-.48.05V7.75c0-.53-.44-.97-.97-.97-1.07 0-1.94-.86-1.94-1.93 0-.53-.44-.97-.97-.97H30c-.53 0-.97.44-.97.97 0 .15-.02.29-.06.44-.36.02-.72.1-1.07.26L24.19 7.3V2.91c0-.53.44-.97.97-.97h20.51c.53 0 .96.44.96.97v29.62z"></path><path fill="#f16e61" d="M51.95 58.95v3.11H40.63v-3.11H51.95z"></path><path fill="#e25f5a" d="M51.95 61.1v.96H40.63v-.96H51.95z"></path><path fill="#ffe4a9" d="m54.34 47.28-3.36 7.36c-.11.25-.16.54-.18.88L50.78 57h-8.87c-.32-2.31-.6-4.58-.57-5.98 0-.23.04-.45.12-.68l1.4-4.02c.01-.01.01-.02.01-.04l.67-1.93c.15-.43.22-.86.22-1.3v-7.49c0-.38.15-.72.39-.97.01-.01.02-.03.03-.04.05-.06.11-.1.17-.15.02-.02.05-.03.07-.05.22-.15.48-.22.77-.22.39 0 .75.15 1.03.43.27.26.42.62.42 1v6.78c0 .53.44.97.97.97s.97-.44.97-.97v-3.59l2.69 1.18c.06.03.12.09.15.14l2.93 6.86c.02.12.02.27-.01.35z"></path><path fill="#efd298" d="M45.75 34.26c-.07.03-.14.07-.2.11-.02.02-.05.03-.07.05-.07.05-.13.09-.17.15-.01.01-.02.03-.03.04-.24.25-.39.59-.39.97v7.49c0 .44-.08.87-.22 1.3L44 46.28c0 .02 0 .03-.01.04l-1.4 4.02c-.08.23-.12.45-.12.68-.03 1.41.25 3.68.57 5.98h-1.13c-.32-2.31-.6-4.58-.57-5.98 0-.23.04-.45.12-.68l1.4-4.02c.01-.01.01-.02.01-.04l.67-1.93c.15-.43.22-.86.22-1.3v-7.49c0-.38.15-.72.39-.97.01-.01.02-.03.03-.04.05-.06.11-.1.17-.15.02-.02.05-.03.07-.05.22-.15.48-.22.77-.22.19.01.39.05.56.13zm8.59 13.02-3.36 7.36c-.11.25-.16.54-.18.88L50.78 57H49.4l.02-1.46c.02-.34.08-.63.18-.88l3.41-7.28c.03-.08.03-.23-.02-.35l-2.98-6.79a.406.406 0 0 0-.15-.14l-1.31-.55v-.8l1.13.5 1.55.68c.06.03.12.09.15.14l2.93 6.86c.06.12.06.27.03.35z"></path><path fill="#ffdb7c" d="M36.49 11.03c0 .59-.48 1.08-1.09 1.08-.59 0-1.08-.48-1.08-1.08 0-.6.48-1.09 1.08-1.09.61 0 1.09.48 1.09 1.09z"></path><path fill="#ebebec" d="M42.76 8.6v21.62l-2.46-5.21c.84-.92 1.3-2.05 1.3-3.25 0-2.68-2.29-4.89-5.3-5.25L35.12 14c.1.01.19.03.3.03 1.67 0 3.03-1.36 3.03-3.02 0-1.67-1.36-3.03-3.03-3.03-1.04 0-1.96.53-2.5 1.35l-1.13-2.4c-.22-.46-.55-.82-.93-1.11 0-.01 0-.01.01-.02h9.12a3.823 3.823 0 0 0 2.77 2.8z"></path><path fill="#53be9e" d="M39.65 21.77c0 .44-.11.85-.3 1.24l-1.99-4.2c1.35.56 2.29 1.69 2.29 2.96z"></path><path fill="#ebebec" d="M40.18 38.39 28.94 14.56c-.67.13-1.37.08-2.04-.16-.66-.24-1.23-.65-1.67-1.17l-8.25 3.89c.26 1.38-.24 2.81-1.33 3.7l11.24 23.83a3.874 3.874 0 0 1 3.71 1.33l8.25-3.89a3.88 3.88 0 0 1 1.33-3.7zM20.6 21.18a3.03 3.03 0 0 1 1.44-4.02c1.5-.71 3.31-.06 4.01 1.44.35.73.39 1.55.12 2.31-.27.77-.82 1.37-1.55 1.72-.42.19-.85.29-1.29.29-.34 0-.69-.07-1.02-.18-.76-.28-1.36-.83-1.71-1.56zm6.59 13.9c-.52 0-1.05-.07-1.55-.19-1.52-.39-2.71-1.33-3.33-2.64-1.24-2.65.25-5.98 3.34-7.44 1.46-.69 3.08-.86 4.54-.48 1.52.39 2.71 1.33 3.33 2.64.62 1.31.59 2.82-.08 4.25-.64 1.37-1.79 2.49-3.26 3.19-.96.44-1.99.67-2.99.67zm8.16 5.27c-.28.76-.82 1.37-1.56 1.71-.41.2-.85.29-1.28.29-1.13 0-2.22-.64-2.73-1.73-.35-.74-.39-1.55-.12-2.31.27-.77.82-1.37 1.56-1.72 1.5-.71 3.31-.06 4.01 1.44.35.74.39 1.56.12 2.32z"></path><path fill="#ffdb7c" d="M24.35 20.26c-.1.27-.3.48-.56.61-.53.25-1.18.02-1.44-.51-.13-.26-.14-.56-.04-.83.1-.27.29-.48.55-.61.16-.07.31-.1.47-.1.4 0 .8.22.97.62.13.24.15.55.05.82zm9.17 19.43a1.08 1.08 0 0 1-1.99.1 1.02 1.02 0 0 1-.04-.82 1.098 1.098 0 0 1 1.01-.72 1.075 1.075 0 0 1 1.02 1.44z"></path><path fill="#53be9e" d="M31.76 27.79c-.37-.78-1.1-1.34-2.06-1.59-.34-.09-.7-.13-1.07-.13-.72 0-1.45.16-2.15.49-2.12 1-3.2 3.18-2.41 4.85.37.79 1.1 1.35 2.06 1.59 1.02.27 2.16.14 3.22-.36s1.89-1.3 2.34-2.26c.41-.88.44-1.8.07-2.59zm-.9 1.22-.06.11c-.04.05-.07.07-.1.08l-.48.17c.01.03.02.07.02.1.02.09.03.16.04.24.01.08.01.15.01.2a.61.61 0 0 1-.04.19c-.03.08-.08.14-.15.18-.04.04-.12.08-.21.13-.08.04-.14.06-.18.08-.06.03-.12.03-.16.04h-.06l-.13-.05c-.05-.03-.08-.07-.11-.13s-.03-.13-.03-.22c.01-.07.01-.14.01-.21a1.487 1.487 0 0 0-.15-.63c-.09-.17-.18-.3-.28-.35-.08-.04-.15-.05-.23 0-.05.02-.09.05-.11.09a.87.87 0 0 0-.05.19c0 .08 0 .17.01.28l.03.37c.01.12.01.25 0 .39-.01.15-.03.28-.09.42-.04.14-.12.26-.22.38-.12.13-.26.22-.45.31a1.13 1.13 0 0 1-.97.06c-.16-.06-.29-.15-.44-.26-.1-.09-.18-.19-.26-.31l-.5.18h-.1l-.06-.01-.1-.07c-.02-.02-.05-.05-.08-.1s-.05-.09-.08-.15c-.03-.07-.06-.13-.07-.17a.55.55 0 0 1-.03-.16v-.08l.08-.12c.04-.04.07-.06.11-.07l.43-.16c-.01 0-.01-.01-.01-.02-.02-.07-.03-.15-.04-.21 0-.07 0-.13-.01-.17 0-.07.01-.13.03-.18l.01-.03.05-.09c.03-.03.06-.07.11-.1l.09-.05c.03-.02.08-.05.13-.07l.16-.07c.04-.02.1-.04.15-.04l.07-.01.12.06.04.03.05.07c.02.06.03.13.03.21v.19c.01.09.02.17.04.26.01.08.04.16.09.27.04.09.08.16.12.19.04.05.07.08.11.1.11.01.14 0 .17-.01.05-.03.08-.06.11-.1.02-.05.04-.12.04-.18.01-.1 0-.19 0-.3-.02-.12-.03-.24-.04-.37a2.67 2.67 0 0 1 0-.4 1.357 1.357 0 0 1 .3-.8c.11-.13.25-.22.44-.31.17-.09.37-.14.55-.14.2-.01.38.03.54.1.16.07.33.17.48.32.11.1.2.22.29.36l.55-.19h.1l.05.01.09.06c.03.03.06.07.09.1.03.05.05.1.08.15.03.08.06.14.07.18.02.06.03.12.03.16l-.04.08z"></path><path fill="#53be9e" d="M42.31 33.83a3.3 3.3 0 0 0-.49 1.74v1.74L30.33 12.97a.984.984 0 0 0-1.3-.47c-.96.46-2.11.04-2.57-.92a.996.996 0 0 0-.55-.5.954.954 0 0 0-.74.04l-9.78 4.62c-.48.22-.69.8-.47 1.29.46.96.04 2.12-.92 2.57-.23.12-.42.31-.5.55-.09.24-.07.51.04.75l11.97 25.35c.22.48.8.69 1.29.47.96-.46 2.11-.04 2.58.92.16.35.51.56.87.56.14 0 .28-.03.42-.1l9.77-4.62c.48-.22.69-.8.47-1.29-.46-.96-.05-2.1.91-2.57v3.43c0 .23-.04.46-.12.68l-.53 1.54-14.06 6.63a.96.96 0 0 1-1.29-.46L9.73 17.34a.96.96 0 0 1 .46-1.29L28.73 7.3a.976.976 0 0 1 1.29.47l12.29 26.06z"></path><path fill="#39a380" d="m11.21 17.82 15.13 32.09c.21.46.76.65 1.21.43l14.12-6.53-.5 1.46-14.06 6.63a.96.96 0 0 1-1.29-.46L9.73 17.34a.96.96 0 0 1 .46-1.29L28.73 7.3a.976.976 0 0 1 1.29.47l12.3 26.07c-.26.42-.43.9-.48 1.43L29.47 9.37a.91.91 0 0 0-1.21-.44l-16.62 7.68c-.46.21-.65.76-.43 1.21z"></path><path fill="#53be9e" d="M46.63 2.91v29.62c-.45-.21-.93-.33-1.44-.33-.16 0-.33.02-.48.05V7.75c0-.53-.44-.97-.97-.97-1.07 0-1.94-.86-1.94-1.93 0-.53-.44-.97-.97-.97H30c-.53 0-.97.44-.97.97 0 .15-.02.29-.06.44-.36.02-.72.1-1.07.26L24.19 7.3V2.91c0-.53.44-.97.97-.97h20.51c.53 0 .96.44.96.97z"></path><path fill="#39a380" d="M46.63 2.91v29.62c-.37-.17-.76-.28-1.17-.32V3.79c0-.49-.39-.91-.86-.91H26.23c-.48 0-.87.42-.87.91v2.96l-1.17.55V2.91c0-.53.44-.97.97-.97h20.51c.53 0 .96.44.96.97z"></path></svg>