<svg xmlns="http://www.w3.org/2000/svg" viewBox="0 0 8.467 8.467" id="LocationPointer"><path d="M4.232.793c-.498 0-1.08.145-1.556.522s-.824 1-.824 1.861c0 .911.572 1.799 1.117 2.48.545.682 1.09 1.159 1.09 1.159.1.088.249.088.349 0 0 0 .545-.477 1.09-1.159.545-.681 1.117-1.569 1.117-2.48 0-.862-.348-1.484-.824-1.861S4.73.793 4.232.793Zm0 .53c.395 0 .872.121 1.23.406.36.284.624.721.624 1.447 0 .676-.478 1.514-1 2.148-.443.538-.649.727-.852.93-.19-.196-.433-.412-.853-.93-.518-.638-1-1.472-1-2.148 0-.726.264-1.163.623-1.447.36-.285.834-.407 1.228-.407zm0 .534c-.727 0-1.322.597-1.322 1.325 0 .727.595 1.322 1.322 1.322.728 0 1.325-.595 1.325-1.322a1.33 1.33 0 0 0-1.325-1.325zm0 .53c.442 0 .796.353.796.795a.79.79 0 0 1-.796.792.788.788 0 0 1-.792-.792.79.79 0 0 1 .792-.795zM2.904 6.148a.23.23 0 0 0-.017.003c-.574.059-1.009.145-1.303.273-.147.064-.28.126-.36.299a.397.397 0 0 0-.005.298c.037.091.099.152.162.2.252.19.613.265 1.105.338.492.073 1.099.115 1.746.115.648 0 1.254-.042 1.746-.115.493-.073.855-.148 1.108-.338a.47.47 0 0 0 .162-.198.403.403 0 0 0-.006-.3c-.08-.174-.212-.235-.36-.3-.293-.127-.726-.213-1.3-.272-.337-.028-.418.465-.055.527.459.047.844.122 1.066.2-.154.056-.38.111-.693.157-.458.068-1.043.11-1.668.11-.624 0-1.209-.042-1.667-.11a3.724 3.724 0 0 1-.695-.156 5.587 5.587 0 0 1 1.07-.201c.345-.052.298-.527-.036-.53z" color="#000" font-family="sans-serif" font-weight="400" overflow="visible" paint-order="fill markers stroke" style="line-height:normal;font-variant-ligatures:normal;font-variant-position:normal;font-variant-caps:normal;font-variant-numeric:normal;font-variant-alternates:normal;font-feature-settings:normal;text-indent:0;text-align:start;text-decoration-line:none;text-decoration-style:solid;text-decoration-color:#000;text-transform:none;text-orientation:mixed;shape-padding:0;isolation:auto;mix-blend-mode:normal" fill="#00c6ff" class="color000000 svgShape"></path></svg>