<svg xmlns="http://www.w3.org/2000/svg" enable-background="new 0 0 64 64" viewBox="0 0 64 64" id="delivery"><path fill="#010101" d="M37.8 4.3c0-.6-.5-1-1-1h-5.9C30.1 1.3 28.2 0 26 0c-3 0-5.3 2.4-5.3 5.3h16.2C37.4 5.3 37.8 4.9 37.8 4.3zM30.1 10.3v-3h-8.4v2.2c0 2.2 1.8 4 4 4h1.2C28.7 13.5 30.1 12.1 30.1 10.3zM46.9 21.3c.2 0 .5.1.7.2l1.3 1.1V19H45v3.6l1.3-1.1C46.4 21.4 46.6 21.3 46.9 21.3zM24.3 15.4L24.2 17h2.4l.2-1.4h-1.2C25.2 15.6 24.8 15.5 24.3 15.4zM42.5 56.1c0 0-.1 0-.2 0l0 0h-.1l-3 .3c-.2 0-.4 0-.6 0-.4-.1-.8-.2-1.1-.5-.5-.4-.8-1-.9-1.6l-.5-5.5c-.1-.6-.2-1.1-.4-1.7-.1-.2-.2-.4-.3-.6L31.2 40l-1.7-2.7h-5.7c-.6 0-1-.5-1-1 0-.6.5-1 1-1h5.3v-6h-1.2c-.4 0-.8-.3-.9-.6-.1-.1-.1-.3-.1-.4 0-.6.5-1 1-1h2.2c.1 0 .3 0 .4.1l.1.1c.1 0 .1.1.2.1l3 2.9c.5.5 1.2.8 1.9.8h6.8c.3 0 .5-.1.7-.3l0 0c.1 0 .1-.1.1-.2.1-.2.2-.4.2-.6 0-.3-.1-.5-.3-.7s-.4-.3-.7-.3h-5.3c-1.4 0-2.8-.6-3.8-1.5l-.1-.1c-.1-.1-.1-.1-.2-.2-.1-.1-.2-.2-.3-.3L32.7 27c-.1-.2-.2-.3-.3-.5l-.3-.6L29 20c0 0 0-.1-.1-.1-.1-.1-.2-.2-.3-.3-.1-.1-.1-.1-.2-.2-.1 0-.1-.1-.2-.1-.1-.1-.2-.1-.3-.1-.1 0-.1-.1-.2-.1S27.5 19 27.4 19c-.1 0-.2 0-.3 0H27h-2.8c-.3 0-.5.1-.8.1-.2.1-.4.2-.5.3 0 0 0 0-.1.1-.2.1-.3.2-.4.4l0 0c-.1.1-.2.3-.3.4 0 .1-.1.1-.1.2-.1.1-.1.3-.1.4V21l-2 18.2L19 47.7c0 .4-.1.7-.2 1.1-.4 1.5-1.1 2.9-2.2 4.1l-2.5 2.5c-.1.1-.2.3-.2.5s.1.5.2.7l5.2 5.2c.2.2.6.3.9.2.1 0 .2-.1.3-.2.1-.1.1-.2.2-.3.1-.2.1-.4 0-.6 0-.1-.1-.2-.1-.3l-1-1.4L19.4 59l0 0c-.7-1-.7-2.2-.1-3.3 0 0 0-.1.1-.1l1.9-2.7c.1-.1.1-.2.2-.3s.1-.2.2-.3c.1-.2.2-.3.2-.5 0-.1.1-.1.1-.2.2-.4.3-.9.4-1.4l1.6-8.9c0-.2.2-.4.4-.6.1-.1.3-.2.4-.2s.1 0 .2 0h.1c.1 0 .3.1.4.1.1.1.3.2.4.3l.7 1 5.7 8.4c.6.9 1 1.9 1.1 3 0 .1 0 .2 0 .3l.6 5.6c0 .1 0 .1.1.1 0 0 0 0 0 .1l.1.1c.1 0 .2.1.3 0l2.4-.9 5.6-2.1c.1 0 .1-.1.2-.1 0-.1.1-.1.1-.2 0-.2-.1-.2-.1-.3C42.6 56.1 42.6 56.1 42.5 56.1z"></path><path fill="#010101" d="M55.2 19h-4.3v5.8c0 .4-.2.8-.6.9-.1.1-.3.1-.4.1-.2 0-.5-.1-.7-.2l-2.3-1.9-2.3 1.9c-.3.3-.7.3-1.1.1-.4-.2-.6-.5-.6-.9V19h-4.3c-1.1 0-2 .9-2 2v6c.2.1.5.1.7.1h5.3c.8 0 1.6.3 2.2.9s.9 1.3.9 2.2c0 .8-.3 1.6-.9 2.2-.1.1-.3.2-.4.3 0 0 0 0-.1.1S44.1 32.9 44 33c-.1 0-.1.1-.2.1-.1 0-.1 0-.2.1-.3.1-.6.2-1 .2h-5.8V35c.3.8 1 1.2 1.9 1.2h16.6c1.1 0 2-.9 2-2V21C57.2 19.9 56.3 19 55.2 19zM59.9 62H4.1c-.6 0-1 .5-1 1s.5 1 1 1H60c.6 0 1-.5 1-1S60.5 62 59.9 62z"></path></svg>